<svg width="582" height="753" viewBox="0 0 582 753" fill="none" xmlns="http://www.w3.org/2000/svg">
<g clip-path="url(#clip0_1_63)">
<path d="M191.369 0V10.8058C179.151 11.1659 169.807 12.6067 163.338 15.1281C157.228 17.2892 153.096 21.6115 150.939 28.095C148.783 34.2182 147.705 43.9434 147.705 57.2705V336.059C147.705 345.785 148.424 353.169 149.861 358.211C151.299 362.894 153.994 366.135 157.947 367.936C161.9 369.377 167.65 370.098 175.197 370.098H192.987C202.331 370.098 212.393 366.496 223.175 359.292C233.956 352.088 244.378 342.183 254.441 329.576C264.863 316.969 273.847 302.742 281.394 286.893C288.941 270.684 294.332 253.936 297.566 236.646H309.965C308.887 249.613 308.347 266.182 308.347 286.353C308.347 295.718 308.527 309.405 308.887 327.415C309.246 345.064 310.324 363.434 312.121 382.524C293.793 381.804 273.128 381.444 250.128 381.444C227.128 381.083 206.643 380.903 188.674 380.903C178.971 380.903 166.572 380.903 151.478 380.903C136.744 380.903 120.572 381.083 102.962 381.444C85.712 381.444 68.1024 381.624 50.1334 381.984C32.5238 381.984 15.8127 382.164 0 382.524V371.718C11.1408 370.998 19.4065 369.557 24.7972 367.396C30.1879 365.235 33.7817 360.913 35.5786 354.429C37.3754 347.946 38.2739 338.221 38.2739 325.254V57.2705C38.2739 43.9434 37.3754 34.2182 35.5786 28.095C33.7817 21.6115 30.0082 17.2892 24.2581 15.1281C18.8674 12.6067 10.7814 11.1659 0 10.8058V0C10.422 0.360188 24.0784 0.720375 40.9692 1.08056C58.2195 1.44075 76.5478 1.62084 95.9543 1.62084C113.923 1.62084 131.533 1.44075 148.783 1.08056C166.033 0.720375 180.229 0.360188 191.369 0Z" fill="black"/>
<path d="M582 369.617V380.423C571.201 382.584 562.921 386.366 557.162 391.769C551.762 397.172 548.162 405.636 546.362 417.162C544.562 428.328 543.663 444.177 543.663 464.708V752.141C538.263 751.421 532.323 751.061 525.844 751.061C519.724 751.061 513.065 751.421 505.865 752.141L266.66 490.642V646.245C266.66 670.377 267.56 688.927 269.36 701.894C271.52 714.501 276.379 723.686 283.939 729.449C291.859 734.852 304.278 738.814 321.197 741.335V752.141C313.997 751.421 304.638 751.061 293.118 751.061C281.599 750.7 270.8 750.52 260.72 750.52C252.801 750.52 244.701 750.7 236.422 751.061C228.143 751.061 221.303 751.421 215.903 752.141V741.335C227.063 738.814 235.342 735.032 240.742 729.989C246.141 724.586 249.741 716.122 251.541 704.596C253.341 693.07 254.241 677.221 254.241 657.05V426.887C254.241 413.56 253.341 403.835 251.541 397.712C249.741 391.228 245.961 386.906 240.202 384.745C234.802 382.224 226.703 380.783 215.903 380.423V369.617C221.303 369.977 228.143 370.337 236.422 370.698C244.701 371.058 252.801 371.238 260.72 371.238C269.72 371.238 278.539 371.058 287.179 370.698C295.818 370.337 303.558 369.977 310.397 369.617L531.243 603.022V475.513C531.243 451.381 530.163 433.011 528.004 420.404C526.204 407.437 521.524 398.072 513.964 392.309C506.405 386.546 493.986 382.584 476.707 380.423V369.617C483.906 369.977 493.266 370.337 504.785 370.698C516.304 371.058 527.104 371.238 537.183 371.238C545.462 371.238 553.562 371.058 561.481 370.698C569.761 370.337 576.6 369.977 582 369.617Z" fill="black"/>
</g>
<defs>
<clipPath id="clip0_1_63">
<rect width="582" height="753" fill="white"/>
</clipPath>
</defs>
</svg>
