<svg width="1264" height="703" viewBox="0 0 1264 703" fill="none" xmlns="http://www.w3.org/2000/svg">
<g clip-path="url(#clip0_1_81)">
<path d="M168.689 0V9.5251C157.918 9.8426 149.682 11.1126 143.98 13.3351C138.594 15.2402 134.951 19.0502 133.051 24.7653C131.15 30.1628 130.199 38.7354 130.199 50.483V296.231C130.199 304.803 130.833 311.312 132.1 315.757C133.367 319.885 135.743 322.742 139.228 324.33C142.713 325.6 147.781 326.235 154.434 326.235H170.115C178.351 326.235 187.221 323.06 196.725 316.71C206.228 310.36 215.415 301.628 224.285 290.516C233.472 279.403 241.392 266.862 248.044 252.892C254.697 238.604 259.449 223.84 262.3 208.6H273.229C272.278 220.03 271.803 234.635 271.803 252.415C271.803 260.67 271.962 272.736 272.278 288.611C272.595 304.168 273.546 320.361 275.129 337.189C258.973 336.554 240.758 336.236 220.484 336.236C200.209 335.919 182.153 335.76 166.313 335.76C157.76 335.76 146.831 335.76 133.526 335.76C120.537 335.76 106.282 335.919 90.7595 336.236C75.5537 336.236 60.0311 336.395 44.1918 336.713C28.6692 336.713 13.9386 336.871 0 337.189V327.664C9.8204 327.029 17.1065 325.759 21.8583 323.854C26.6101 321.949 29.778 318.139 31.3619 312.423C32.9458 306.708 33.7378 298.136 33.7378 286.706V50.483C33.7378 38.7354 32.9458 30.1628 31.3619 24.7653C29.778 19.0502 26.4517 15.2402 21.3831 13.3351C16.6313 11.1126 9.50361 9.8426 0 9.5251V0C9.18682 0.317499 21.2247 0.634999 36.1137 0.952498C51.3195 1.27 67.4756 1.42875 84.5821 1.42875C100.421 1.42875 115.944 1.27 131.15 0.952498C146.356 0.634999 158.869 0.317499 168.689 0Z" fill="black"/>
<path d="M513.024 325.811V335.336C503.504 337.241 496.206 340.575 491.129 345.338C486.369 350.1 483.196 357.562 481.61 367.722C480.023 377.564 479.23 391.535 479.23 409.632V663C474.47 662.365 469.234 662.048 463.523 662.048C458.128 662.048 452.258 662.365 445.912 663L235.057 432.492V569.654C235.057 590.927 235.85 607.278 237.437 618.708C239.34 629.821 243.624 637.917 250.288 642.997C257.269 647.76 268.216 651.252 283.13 653.475V663C276.783 662.365 268.533 662.048 258.379 662.048C248.225 661.73 238.706 661.571 229.821 661.571C222.84 661.571 215.701 661.73 208.402 662.048C201.104 662.048 195.075 662.365 190.315 663V653.475C200.152 651.252 207.45 647.919 212.21 643.474C216.97 638.711 220.143 631.25 221.73 621.09C223.316 610.929 224.109 596.959 224.109 579.179V376.294C224.109 364.547 223.316 355.974 221.73 350.577C220.143 344.861 216.811 341.051 211.734 339.146C206.974 336.924 199.835 335.654 190.315 335.336V325.811C195.075 326.129 201.104 326.446 208.402 326.764C215.701 327.081 222.84 327.24 229.821 327.24C237.754 327.24 245.528 327.081 253.144 326.764C260.759 326.446 267.581 326.129 273.61 325.811L468.282 531.554V419.157C468.282 397.885 467.331 381.692 465.427 370.579C463.84 359.149 459.715 350.894 453.051 345.814C446.388 340.734 435.44 337.241 420.209 335.336V325.811C426.556 326.129 434.806 326.446 444.96 326.764C455.114 327.081 464.633 327.24 473.518 327.24C480.816 327.24 487.956 327.081 494.937 326.764C502.235 326.446 508.264 326.129 513.024 325.811Z" fill="black"/>
<path d="M315.76 189.88C321.307 189.88 325.573 191.053 328.56 193.4C331.653 195.64 333.2 199.053 333.2 203.64C333.2 208.227 331.653 211.693 328.56 214.04C325.573 216.28 321.307 217.4 315.76 217.4C310.213 217.4 305.893 216.28 302.8 214.04C299.813 211.693 298.32 208.227 298.32 203.64C298.32 199.053 299.813 195.64 302.8 193.4C305.893 191.053 310.213 189.88 315.76 189.88ZM331.12 230.2V300.12C331.12 304.6 331.76 307.64 333.04 309.24C334.427 310.84 336.773 311.64 340.08 311.64V315C337.947 314.893 334.747 314.787 330.48 314.68C326.213 314.467 321.84 314.36 317.36 314.36C312.88 314.36 308.347 314.467 303.76 314.68C299.173 314.787 295.707 314.893 293.36 315V311.64C296.667 311.64 298.96 310.84 300.24 309.24C301.627 307.64 302.32 304.6 302.32 300.12V249.4C302.32 244.6 301.68 241.08 300.4 238.84C299.12 236.493 296.773 235.32 293.36 235.32V231.96C296.773 232.28 300.08 232.44 303.28 232.44C308.613 232.44 313.573 232.28 318.16 231.96C322.853 231.533 327.173 230.947 331.12 230.2ZM367.773 316.12C362.759 316.12 358.653 315.16 355.453 313.24C352.253 311.32 349.906 308.813 348.413 305.72C347.026 302.627 346.333 299.373 346.333 295.96C346.333 291.48 347.346 287.853 349.373 285.08C351.399 282.2 354.013 279.907 357.213 278.2C360.519 276.387 363.986 274.893 367.613 273.72C371.239 272.547 374.653 271.427 377.853 270.36C381.159 269.187 383.826 267.853 385.853 266.36C387.879 264.76 388.893 262.733 388.893 260.28V246.04C388.893 244.333 388.573 242.467 387.933 240.44C387.399 238.413 386.333 236.653 384.733 235.16C383.133 233.667 380.733 232.92 377.533 232.92C375.826 232.92 374.173 233.187 372.573 233.72C371.079 234.147 369.746 234.787 368.573 235.64C372.306 237.027 375.026 239 376.733 241.56C378.439 244.013 379.293 246.733 379.293 249.72C379.293 253.987 377.799 257.347 374.813 259.8C371.826 262.253 368.306 263.48 364.253 263.48C359.986 263.48 356.679 262.147 354.333 259.48C351.986 256.813 350.813 253.507 350.813 249.56C350.813 246.253 351.613 243.48 353.213 241.24C354.919 238.893 357.426 236.76 360.733 234.84C363.933 233.027 367.773 231.747 372.253 231C376.733 230.147 381.426 229.72 386.333 229.72C391.559 229.72 396.413 230.253 400.893 231.32C405.373 232.28 409.213 234.413 412.413 237.72C414.653 240.067 416.093 243 416.733 246.52C417.373 250.04 417.693 254.573 417.693 260.12V303C417.693 305.667 417.853 307.48 418.173 308.44C418.599 309.4 419.293 309.88 420.253 309.88C421.106 309.88 421.906 309.613 422.653 309.08C423.506 308.547 424.306 308.013 425.052 307.48L426.653 310.2C424.306 312.227 421.373 313.72 417.853 314.68C414.439 315.64 410.813 316.12 406.973 316.12C402.386 316.12 398.813 315.587 396.253 314.52C393.799 313.347 392.039 311.853 390.973 310.04C390.013 308.12 389.479 306.093 389.373 303.96C387.133 307.48 384.306 310.413 380.893 312.76C377.586 315 373.213 316.12 367.773 316.12ZM382.973 303.32C384.146 303.32 385.159 303.16 386.013 302.84C386.973 302.413 387.933 301.667 388.893 300.6V266.84C388.146 268.227 387.133 269.613 385.853 271C384.679 272.28 383.453 273.613 382.173 275C380.893 276.387 379.666 277.88 378.493 279.48C377.426 281.08 376.519 282.947 375.773 285.08C375.133 287.107 374.813 289.507 374.813 292.28C374.813 296.333 375.559 299.213 377.053 300.92C378.653 302.52 380.626 303.32 382.973 303.32ZM494.373 229.72C499.279 229.72 503.119 230.36 505.893 231.64C508.773 232.813 510.959 234.307 512.453 236.12C514.053 238.04 515.226 240.6 515.972 243.8C516.719 247 517.093 251.32 517.093 256.76V300.12C517.093 304.6 517.733 307.64 519.013 309.24C520.399 310.84 522.746 311.64 526.053 311.64V315C523.919 314.893 520.666 314.787 516.293 314.68C512.026 314.467 507.813 314.36 503.653 314.36C499.173 314.36 494.799 314.467 490.533 314.68C486.266 314.787 483.066 314.893 480.933 315V311.64C483.706 311.64 485.626 310.84 486.693 309.24C487.759 307.64 488.293 304.6 488.293 300.12V248.12C488.293 245.88 488.026 244.013 487.493 242.52C486.959 241.027 486.106 239.907 484.933 239.16C483.866 238.413 482.373 238.04 480.453 238.04C478.533 238.04 476.666 238.52 474.852 239.48C473.146 240.44 471.706 241.827 470.533 243.64C469.466 245.347 468.932 247.32 468.932 249.56V300.12C468.932 304.6 469.466 307.64 470.533 309.24C471.706 310.84 473.626 311.64 476.293 311.64V315C474.266 314.893 471.279 314.787 467.333 314.68C463.386 314.467 459.333 314.36 455.173 314.36C450.693 314.36 446.159 314.467 441.573 314.68C436.986 314.787 433.519 314.893 431.173 315V311.64C434.479 311.64 436.773 310.84 438.053 309.24C439.439 307.64 440.133 304.6 440.133 300.12V249.4C440.133 244.6 439.493 241.08 438.213 238.84C436.933 236.493 434.586 235.32 431.173 235.32V231.96C434.586 232.28 437.893 232.44 441.093 232.44C446.426 232.44 451.386 232.28 455.973 231.96C460.666 231.533 464.986 230.947 468.932 230.2V241.72C471.493 237.453 474.906 234.413 479.173 232.6C483.546 230.68 488.613 229.72 494.373 229.72ZM613.733 189.88V297.4C613.733 302.2 614.373 305.773 615.653 308.12C617.039 310.36 619.386 311.48 622.693 311.48V314.84C619.386 314.52 616.079 314.36 612.773 314.36C607.439 314.36 602.479 314.52 597.893 314.84C593.306 315.16 588.986 315.747 584.933 316.6V209.08C584.933 204.28 584.293 200.76 583.013 198.52C581.733 196.173 579.386 195 575.973 195V191.64C579.386 191.96 582.693 192.12 585.893 192.12C591.226 192.12 596.186 191.96 600.773 191.64C605.466 191.213 609.786 190.627 613.733 189.88ZM568.293 229.72C572.986 229.72 576.933 230.307 580.133 231.48C583.333 232.547 586.159 234.307 588.613 236.76L586.853 238.52C585.466 237.347 583.919 236.493 582.213 235.96C580.506 235.32 578.906 235 577.413 235C572.506 235 568.826 238.147 566.373 244.44C563.919 250.733 562.693 260.387 562.693 273.4C562.693 282.787 563.173 290.093 564.133 295.32C565.093 300.44 566.373 304.013 567.973 306.04C569.679 307.96 571.493 308.92 573.413 308.92C576.399 308.92 579.066 307.853 581.413 305.72C583.759 303.48 584.933 300.707 584.933 297.4V305.24C582.799 309.293 580.186 312.333 577.093 314.36C573.999 316.28 570.106 317.24 565.413 317.24C559.333 317.24 553.786 315.747 548.773 312.76C543.866 309.667 539.973 304.867 537.093 298.36C534.213 291.853 532.773 283.373 532.773 272.92C532.773 263.213 534.213 255.213 537.093 248.92C540.079 242.52 544.239 237.72 549.573 234.52C554.906 231.32 561.146 229.72 568.293 229.72ZM687.073 229.72C690.913 229.72 693.899 230.573 696.033 232.28C698.166 233.88 699.659 235.96 700.513 238.52C701.366 240.973 701.793 243.427 701.793 245.88C701.793 250.68 700.406 254.52 697.633 257.4C694.966 260.173 691.446 261.56 687.073 261.56C682.379 261.56 678.806 260.493 676.353 258.36C674.006 256.227 672.833 253.453 672.833 250.04C672.833 246.413 673.579 243.427 675.073 241.08C676.673 238.733 678.646 236.76 680.993 235.16C679.073 235.16 677.366 235.533 675.873 236.28C674.593 236.813 673.366 237.56 672.193 238.52C671.019 239.48 670.006 240.6 669.153 241.88C668.299 243.053 667.606 244.387 667.073 245.88C666.646 247.373 666.432 248.92 666.432 250.52V298.52C666.432 303.64 667.499 307.107 669.633 308.92C671.766 310.733 675.286 311.64 680.193 311.64V315C677.739 314.893 674.059 314.787 669.153 314.68C664.353 314.467 659.393 314.36 654.273 314.36C649.473 314.36 644.619 314.467 639.713 314.68C634.806 314.787 631.126 314.893 628.673 315V311.64C631.979 311.64 634.273 310.84 635.553 309.24C636.939 307.64 637.633 304.6 637.633 300.12V249.4C637.633 244.6 636.993 241.08 635.713 238.84C634.433 236.493 632.086 235.32 628.673 235.32V231.96C632.086 232.28 635.393 232.44 638.593 232.44C643.926 232.44 648.886 232.28 653.473 231.96C658.166 231.533 662.486 230.947 666.432 230.2V241.72C667.819 238.947 669.526 236.707 671.553 235C673.579 233.187 675.873 231.853 678.433 231C681.099 230.147 683.979 229.72 687.073 229.72ZM727.304 316.12C722.29 316.12 718.184 315.16 714.984 313.24C711.784 311.32 709.437 308.813 707.944 305.72C706.557 302.627 705.864 299.373 705.864 295.96C705.864 291.48 706.877 287.853 708.904 285.08C710.93 282.2 713.544 279.907 716.744 278.2C720.05 276.387 723.517 274.893 727.144 273.72C730.77 272.547 734.184 271.427 737.384 270.36C740.69 269.187 743.357 267.853 745.384 266.36C747.41 264.76 748.424 262.733 748.424 260.28V246.04C748.424 244.333 748.104 242.467 747.464 240.44C746.93 238.413 745.864 236.653 744.264 235.16C742.664 233.667 740.264 232.92 737.064 232.92C735.357 232.92 733.704 233.187 732.104 233.72C730.61 234.147 729.277 234.787 728.104 235.64C731.837 237.027 734.557 239 736.264 241.56C737.97 244.013 738.824 246.733 738.824 249.72C738.824 253.987 737.33 257.347 734.344 259.8C731.357 262.253 727.837 263.48 723.784 263.48C719.517 263.48 716.21 262.147 713.864 259.48C711.517 256.813 710.344 253.507 710.344 249.56C710.344 246.253 711.144 243.48 712.744 241.24C714.45 238.893 716.957 236.76 720.264 234.84C723.464 233.027 727.304 231.747 731.784 231C736.264 230.147 740.957 229.72 745.864 229.72C751.09 229.72 755.944 230.253 760.424 231.32C764.904 232.28 768.744 234.413 771.944 237.72C774.184 240.067 775.624 243 776.264 246.52C776.904 250.04 777.224 254.573 777.224 260.12V303C777.224 305.667 777.384 307.48 777.704 308.44C778.13 309.4 778.824 309.88 779.784 309.88C780.637 309.88 781.437 309.613 782.184 309.08C783.037 308.547 783.837 308.013 784.584 307.48L786.184 310.2C783.837 312.227 780.904 313.72 777.384 314.68C773.97 315.64 770.344 316.12 766.504 316.12C761.917 316.12 758.344 315.587 755.784 314.52C753.33 313.347 751.57 311.853 750.504 310.04C749.544 308.12 749.01 306.093 748.904 303.96C746.664 307.48 743.837 310.413 740.424 312.76C737.117 315 732.744 316.12 727.304 316.12ZM742.504 303.32C743.677 303.32 744.69 303.16 745.544 302.84C746.504 302.413 747.464 301.667 748.424 300.6V266.84C747.677 268.227 746.664 269.613 745.384 271C744.21 272.28 742.984 273.613 741.704 275C740.424 276.387 739.197 277.88 738.024 279.48C736.957 281.08 736.05 282.947 735.304 285.08C734.664 287.107 734.344 289.507 734.344 292.28C734.344 296.333 735.09 299.213 736.584 300.92C738.184 302.52 740.157 303.32 742.504 303.32Z" fill="black"/>
<path d="M521.96 664.12C516.947 664.12 512.84 663.16 509.64 661.24C506.44 659.32 504.093 656.813 502.6 653.72C501.213 650.627 500.52 647.373 500.52 643.96C500.52 639.48 501.533 635.853 503.56 633.08C505.587 630.2 508.2 627.907 511.4 626.2C514.707 624.387 518.173 622.893 521.8 621.72C525.427 620.547 528.84 619.427 532.04 618.36C535.347 617.187 538.013 615.853 540.04 614.36C542.067 612.76 543.08 610.733 543.08 608.28V594.04C543.08 592.333 542.76 590.467 542.12 588.44C541.587 586.413 540.52 584.653 538.92 583.16C537.32 581.667 534.92 580.92 531.72 580.92C530.013 580.92 528.36 581.187 526.76 581.72C525.267 582.147 523.933 582.787 522.76 583.64C526.493 585.027 529.213 587 530.92 589.56C532.627 592.013 533.48 594.733 533.48 597.72C533.48 601.987 531.987 605.347 529 607.8C526.013 610.253 522.493 611.48 518.44 611.48C514.173 611.48 510.867 610.147 508.52 607.48C506.173 604.813 505 601.507 505 597.56C505 594.253 505.8 591.48 507.4 589.24C509.107 586.893 511.613 584.76 514.92 582.84C518.12 581.027 521.96 579.747 526.44 579C530.92 578.147 535.613 577.72 540.52 577.72C545.747 577.72 550.6 578.253 555.08 579.32C559.56 580.28 563.4 582.413 566.6 585.72C568.84 588.067 570.28 591 570.92 594.52C571.56 598.04 571.88 602.573 571.88 608.12V651C571.88 653.667 572.04 655.48 572.36 656.44C572.787 657.4 573.48 657.88 574.44 657.88C575.293 657.88 576.093 657.613 576.84 657.08C577.693 656.547 578.493 656.013 579.24 655.48L580.84 658.2C578.493 660.227 575.56 661.72 572.04 662.68C568.627 663.64 565 664.12 561.16 664.12C556.573 664.12 553 663.587 550.44 662.52C547.987 661.347 546.227 659.853 545.16 658.04C544.2 656.12 543.667 654.093 543.56 651.96C541.32 655.48 538.493 658.413 535.08 660.76C531.773 663 527.4 664.12 521.96 664.12ZM537.16 651.32C538.333 651.32 539.347 651.16 540.2 650.84C541.16 650.413 542.12 649.667 543.08 648.6V614.84C542.333 616.227 541.32 617.613 540.04 619C538.867 620.28 537.64 621.613 536.36 623C535.08 624.387 533.853 625.88 532.68 627.48C531.613 629.08 530.707 630.947 529.96 633.08C529.32 635.107 529 637.507 529 640.28C529 644.333 529.747 647.213 531.24 648.92C532.84 650.52 534.813 651.32 537.16 651.32ZM618.96 577.72C623.653 577.72 627.76 578.253 631.28 579.32C634.907 580.28 637.52 581.187 639.12 582.04C642.853 584.28 645.147 582.893 646 577.88H649.2C648.987 580.973 648.827 584.76 648.72 589.24C648.613 593.613 648.56 599.427 648.56 606.68H645.36C644.933 602.733 643.973 598.84 642.48 595C641.093 591.16 639.013 587.96 636.24 585.4C633.573 582.84 630.053 581.56 625.68 581.56C623.013 581.56 620.773 582.36 618.96 583.96C617.147 585.56 616.24 587.747 616.24 590.52C616.24 593.72 617.2 596.6 619.12 599.16C621.04 601.613 623.493 604.013 626.48 606.36C629.467 608.6 632.453 611 635.44 613.56C638.747 616.227 641.68 618.84 644.24 621.4C646.8 623.96 648.827 626.787 650.32 629.88C651.92 632.867 652.72 636.44 652.72 640.6C652.72 645.4 651.227 649.667 648.24 653.4C645.36 657.133 641.467 660.067 636.56 662.2C631.76 664.227 626.373 665.24 620.4 665.24C616.667 665.24 613.413 664.813 610.64 663.96C607.867 663.213 605.627 662.307 603.92 661.24C602.213 660.387 600.72 659.747 599.44 659.32C598.267 658.787 597.093 658.52 595.92 658.52C594.853 658.52 593.947 659.107 593.2 660.28C592.453 661.347 591.867 662.627 591.44 664.12H588.24C588.453 660.707 588.613 656.547 588.72 651.64C588.827 646.733 588.88 640.227 588.88 632.12H592.08C592.72 637.773 593.947 642.787 595.76 647.16C597.68 651.533 600.08 655 602.96 657.56C605.947 660.013 609.36 661.24 613.2 661.24C614.907 661.24 616.453 660.92 617.84 660.28C619.227 659.64 620.347 658.68 621.2 657.4C622.053 656.12 622.48 654.467 622.48 652.44C622.48 647.747 621.04 643.8 618.16 640.6C615.387 637.4 611.867 633.88 607.6 630.04C604.4 627.053 601.36 624.173 598.48 621.4C595.707 618.52 593.413 615.427 591.6 612.12C589.787 608.707 588.88 604.92 588.88 600.76C588.88 595.96 590.267 591.853 593.04 588.44C595.92 585.027 599.653 582.413 604.24 580.6C608.827 578.68 613.733 577.72 618.96 577.72ZM703.389 577.72C708.082 577.72 712.242 578.2 715.869 579.16C719.495 580.12 722.375 581.24 724.509 582.52C727.389 584.227 729.682 586.52 731.389 589.4C733.202 592.173 734.109 595.427 734.109 599.16C734.109 603.533 732.669 607.213 729.789 610.2C726.909 613.187 723.229 614.68 718.749 614.68C714.055 614.68 710.429 613.347 707.869 610.68C705.309 608.013 704.029 604.547 704.029 600.28C704.029 596.227 705.309 592.813 707.869 590.04C710.535 587.16 713.629 585.24 717.149 584.28C716.402 583.747 715.495 583.32 714.429 583C713.469 582.573 712.242 582.36 710.749 582.36C706.909 582.36 703.762 583.533 701.309 585.88C698.962 588.12 697.095 591.107 695.709 594.84C694.429 598.573 693.522 602.573 692.989 606.84C692.455 611.107 692.189 615.267 692.189 619.32C692.189 626.787 693.202 632.6 695.229 636.76C697.255 640.92 699.815 643.8 702.909 645.4C706.002 647 709.095 647.8 712.189 647.8C713.682 647.8 715.442 647.587 717.469 647.16C719.602 646.733 721.895 645.773 724.349 644.28C726.802 642.68 729.202 640.28 731.549 637.08L734.269 638.04C732.989 642.307 730.909 646.573 728.029 650.84C725.255 655 721.629 658.467 717.149 661.24C712.669 663.907 707.229 665.24 700.829 665.24C693.682 665.24 687.175 663.853 681.309 661.08C675.549 658.307 670.909 653.72 667.389 647.32C663.975 640.92 662.269 632.333 662.269 621.56C662.269 611.32 664.082 603 667.709 596.6C671.335 590.093 676.242 585.347 682.429 582.36C688.722 579.267 695.709 577.72 703.389 577.72ZM763.698 537.88C769.244 537.88 773.511 539.053 776.498 541.4C779.591 543.64 781.138 547.053 781.138 551.64C781.138 556.227 779.591 559.693 776.498 562.04C773.511 564.28 769.244 565.4 763.698 565.4C758.151 565.4 753.831 564.28 750.738 562.04C747.751 559.693 746.258 556.227 746.258 551.64C746.258 547.053 747.751 543.64 750.738 541.4C753.831 539.053 758.151 537.88 763.698 537.88ZM779.057 578.2V648.12C779.057 652.6 779.698 655.64 780.978 657.24C782.364 658.84 784.711 659.64 788.018 659.64V663C785.884 662.893 782.684 662.787 778.418 662.68C774.151 662.467 769.778 662.36 765.298 662.36C760.818 662.36 756.284 662.467 751.698 662.68C747.111 662.787 743.644 662.893 741.298 663V659.64C744.604 659.64 746.898 658.84 748.178 657.24C749.564 655.64 750.258 652.6 750.258 648.12V597.4C750.258 592.6 749.618 589.08 748.338 586.84C747.058 584.493 744.711 583.32 741.298 583.32V579.96C744.711 580.28 748.018 580.44 751.218 580.44C756.551 580.44 761.511 580.28 766.098 579.96C770.791 579.533 775.111 578.947 779.057 578.2ZM855.71 577.72C860.617 577.72 864.457 578.36 867.23 579.64C870.11 580.813 872.297 582.307 873.79 584.12C875.39 586.04 876.563 588.6 877.31 591.8C878.057 595 878.43 599.32 878.43 604.76V648.12C878.43 652.6 878.963 655.64 880.03 657.24C881.097 658.84 883.017 659.64 885.79 659.64V663C883.763 662.893 880.723 662.787 876.67 662.68C872.723 662.467 868.83 662.36 864.99 662.36C860.83 662.36 856.777 662.467 852.83 662.68C848.883 662.787 845.897 662.893 843.87 663V659.64C846.003 659.64 847.497 658.84 848.35 657.24C849.203 655.64 849.63 652.6 849.63 648.12V596.12C849.63 593.88 849.417 592.013 848.99 590.52C848.563 589.027 847.87 587.907 846.91 587.16C846.057 586.413 844.883 586.04 843.39 586.04C841.47 586.04 839.603 586.52 837.79 587.48C836.083 588.44 834.643 589.827 833.47 591.64C832.403 593.347 831.87 595.32 831.87 597.56V648.12C831.87 652.6 832.297 655.64 833.15 657.24C834.003 658.84 835.497 659.64 837.63 659.64V663C835.817 662.893 833.043 662.787 829.31 662.68C825.683 662.467 821.95 662.36 818.11 662.36C813.63 662.36 809.097 662.467 804.51 662.68C799.923 662.787 796.457 662.893 794.11 663V659.64C797.417 659.64 799.71 658.84 800.99 657.24C802.377 655.64 803.07 652.6 803.07 648.12V597.4C803.07 592.6 802.43 589.08 801.15 586.84C799.87 584.493 797.523 583.32 794.11 583.32V579.96C797.523 580.28 800.83 580.44 804.03 580.44C809.363 580.44 814.323 580.28 818.91 579.96C823.603 579.533 827.923 578.947 831.87 578.2V589.72C834.323 585.453 837.577 582.413 841.63 580.6C845.683 578.68 850.377 577.72 855.71 577.72ZM903.87 577.72C908.777 577.72 912.617 578.36 915.39 579.64C918.27 580.813 920.457 582.307 921.95 584.12C923.55 586.04 924.723 588.6 925.47 591.8C926.217 595 926.59 599.32 926.59 604.76V648.12C926.59 652.6 927.23 655.64 928.51 657.24C929.897 658.84 932.243 659.64 935.55 659.64V663C933.417 662.893 930.163 662.787 925.79 662.68C921.523 662.467 917.31 662.36 913.15 662.36C908.99 662.36 904.937 662.467 900.99 662.68C897.043 662.787 894.057 662.893 892.03 663V659.64C894.163 659.64 895.657 658.84 896.51 657.24C897.363 655.64 897.79 652.6 897.79 648.12V596.12C897.79 593.88 897.523 592.013 896.99 590.52C896.457 589.027 895.603 587.907 894.43 587.16C893.363 586.413 891.87 586.04 889.95 586.04C888.03 586.04 886.163 586.627 884.35 587.8C882.643 588.973 881.203 590.52 880.03 592.44C878.963 594.253 878.323 596.28 878.11 598.52L876.99 592.12C879.87 586.467 883.603 582.68 888.19 580.76C892.883 578.733 898.11 577.72 903.87 577.72ZM983.393 577.72C992.779 577.72 1000.14 580.493 1005.47 586.04C1010.91 591.48 1013.63 600.653 1013.63 613.56H963.553L963.233 610.52H990.273C990.379 605.293 990.166 600.493 989.633 596.12C989.099 591.64 988.246 588.067 987.073 585.4C985.899 582.733 984.299 581.4 982.273 581.4C979.393 581.4 977.046 583.693 975.233 588.28C973.419 592.76 972.246 600.493 971.713 611.48L972.353 612.76C972.246 613.827 972.193 614.893 972.193 615.96C972.193 617.027 972.193 618.147 972.193 619.32C972.193 626.787 973.099 632.6 974.913 636.76C976.833 640.92 979.179 643.8 981.953 645.4C984.833 647 987.713 647.8 990.593 647.8C992.086 647.8 993.846 647.587 995.873 647.16C998.006 646.733 1000.3 645.773 1002.75 644.28C1005.21 642.68 1007.61 640.28 1009.95 637.08L1012.67 638.04C1011.39 642.307 1009.31 646.573 1006.43 650.84C1003.66 655 1000.03 658.467 995.553 661.24C991.073 663.907 985.633 665.24 979.233 665.24C972.406 665.24 966.166 663.853 960.513 661.08C954.966 658.307 950.539 653.72 947.233 647.32C943.926 640.92 942.273 632.333 942.273 621.56C942.273 611.32 944.086 603 947.713 596.6C951.339 590.093 956.246 585.347 962.433 582.36C968.726 579.267 975.713 577.72 983.393 577.72ZM1082.78 577.72C1087.69 577.72 1091.53 578.36 1094.3 579.64C1097.18 580.813 1099.37 582.307 1100.86 584.12C1102.46 586.04 1103.63 588.6 1104.38 591.8C1105.13 595 1105.5 599.32 1105.5 604.76V648.12C1105.5 652.6 1106.14 655.64 1107.42 657.24C1108.81 658.84 1111.15 659.64 1114.46 659.64V663C1112.33 662.893 1109.07 662.787 1104.7 662.68C1100.43 662.467 1096.22 662.36 1092.06 662.36C1087.58 662.36 1083.21 662.467 1078.94 662.68C1074.67 662.787 1071.47 662.893 1069.34 663V659.64C1072.11 659.64 1074.03 658.84 1075.1 657.24C1076.17 655.64 1076.7 652.6 1076.7 648.12V596.12C1076.7 593.88 1076.43 592.013 1075.9 590.52C1075.37 589.027 1074.51 587.907 1073.34 587.16C1072.27 586.413 1070.78 586.04 1068.86 586.04C1066.94 586.04 1065.07 586.52 1063.26 587.48C1061.55 588.44 1060.11 589.827 1058.94 591.64C1057.87 593.347 1057.34 595.32 1057.34 597.56V648.12C1057.34 652.6 1057.87 655.64 1058.94 657.24C1060.11 658.84 1062.03 659.64 1064.7 659.64V663C1062.67 662.893 1059.69 662.787 1055.74 662.68C1051.79 662.467 1047.74 662.36 1043.58 662.36C1039.1 662.36 1034.57 662.467 1029.98 662.68C1025.39 662.787 1021.93 662.893 1019.58 663V659.64C1022.89 659.64 1025.18 658.84 1026.46 657.24C1027.85 655.64 1028.54 652.6 1028.54 648.12V597.4C1028.54 592.6 1027.9 589.08 1026.62 586.84C1025.34 584.493 1022.99 583.32 1019.58 583.32V579.96C1022.99 580.28 1026.3 580.44 1029.5 580.44C1034.83 580.44 1039.79 580.28 1044.38 579.96C1049.07 579.533 1053.39 578.947 1057.34 578.2V589.72C1059.9 585.453 1063.31 582.413 1067.58 580.6C1071.95 578.68 1077.02 577.72 1082.78 577.72ZM1156.54 554.04V579.96H1172.22V583.16H1156.54V649.56C1156.54 651.587 1156.91 653.08 1157.66 654.04C1158.41 654.893 1159.63 655.32 1161.34 655.32C1162.51 655.32 1163.9 655 1165.5 654.36C1167.1 653.613 1168.59 652.387 1169.98 650.68L1172.38 652.6C1170.14 656.44 1167.15 659.533 1163.42 661.88C1159.79 664.12 1155.21 665.24 1149.66 665.24C1146.14 665.24 1142.94 664.76 1140.06 663.8C1137.29 662.947 1134.99 661.613 1133.18 659.8C1130.83 657.453 1129.34 654.573 1128.7 651.16C1128.06 647.64 1127.74 643.107 1127.74 637.56V583.16H1115.58V579.96H1127.74V561.08C1133.39 561.08 1138.51 560.547 1143.1 559.48C1147.79 558.307 1152.27 556.493 1156.54 554.04ZM1217.3 577.72C1225.62 577.72 1232.82 579.16 1238.9 582.04C1245.09 584.813 1249.89 589.4 1253.3 595.8C1256.71 602.2 1258.42 610.787 1258.42 621.56C1258.42 632.333 1256.71 640.92 1253.3 647.32C1249.89 653.72 1245.09 658.307 1238.9 661.08C1232.82 663.853 1225.62 665.24 1217.3 665.24C1209.09 665.24 1201.89 663.853 1195.7 661.08C1189.51 658.307 1184.71 653.72 1181.3 647.32C1177.89 640.92 1176.18 632.333 1176.18 621.56C1176.18 610.787 1177.89 602.2 1181.3 595.8C1184.71 589.4 1189.51 584.813 1195.7 582.04C1201.89 579.16 1209.09 577.72 1217.3 577.72ZM1217.3 580.92C1214.1 580.92 1211.43 584.12 1209.3 590.52C1207.17 596.92 1206.1 607.267 1206.1 621.56C1206.1 635.853 1207.17 646.2 1209.3 652.6C1211.43 658.893 1214.1 662.04 1217.3 662.04C1220.5 662.04 1223.17 658.893 1225.3 652.6C1227.43 646.2 1228.5 635.853 1228.5 621.56C1228.5 607.267 1227.43 596.92 1225.3 590.52C1223.17 584.12 1220.5 580.92 1217.3 580.92Z" fill="black"/>
</g>
<defs>
<clipPath id="clip0_1_81">
<rect width="1264" height="703" fill="white"/>
</clipPath>
</defs>
</svg>
